# 3ds Max Wavefront OBJ Exporter v0.97b - (c)2007 guruware
# File Created: 27.01.2013 12:49:35

mtllib crossing_tile.mtl

#
# object polySurface12
#

v  48.8139 43.7550 -154.5096
v  48.8139 43.7550 -100.4257
v  99.3709 43.7550 -100.4257
v  99.3709 43.7550 -154.5096
v  153.4548 43.7550 -100.4256
v  153.4548 43.7550 -154.5096
v  48.8139 43.7550 -49.8687
v  99.3709 43.7550 -49.8687
v  153.4548 43.7550 -49.8687
v  153.4548 -0.0000 -17.7986
v  101.1224 -0.0000 -17.7986
v  101.1224 -0.0000 -1.0548
v  153.4548 -0.0000 -1.0547
v  153.4548 -0.0000 -33.4875
v  99.3708 -0.0000 -33.4875
v  153.4548 -0.0000 -49.1763
v  99.3708 -0.0000 -49.1763
v  153.4548 40.5718 -49.1764
v  99.3709 40.5718 -49.1764
v  1.0548 -0.0000 -100.4257
v  1.0548 -0.0000 -49.1764
v  16.7438 -0.0000 -49.1764
v  16.7438 -0.0000 -100.4257
v  32.4327 -0.0000 -49.1764
v  32.4327 -0.0000 -100.4257
v  48.1215 -0.0000 -49.1764
v  48.1215 -0.0000 -100.4257
v  48.1216 40.5718 -49.1764
v  48.1216 40.5718 -100.4257
v  1.0548 -0.0000 -33.4875
v  16.7438 -0.0000 -33.4875
v  32.4327 -0.0000 -33.4875
v  48.1215 -0.0000 -33.4875
v  1.0548 -0.0000 -17.7986
v  16.7438 -0.0000 -17.7986
v  32.4327 -0.0000 -17.7986
v  48.1215 -0.0000 -17.7986
v  1.0548 -0.0000 -1.0548
v  16.7438 -0.0000 -1.0548
v  32.4327 -0.0000 -1.0548
v  48.1215 -0.0000 -1.0548
v  48.1215 -0.0000 -154.5096
v  48.1216 40.5718 -154.5096
v  32.4327 -0.0000 -154.5097
v  16.7438 -0.0000 -154.5097
v  1.0548 -0.0000 -154.5097
v  48.4786 43.5600 -154.5096
v  48.4786 43.5600 -100.4257
v  48.1215 41.4520 -100.4257
v  48.1215 41.4520 -154.5096
v  48.2400 42.8549 -154.5096
v  48.2400 42.8549 -100.4257
v  48.4786 43.5600 -49.5081
v  48.1215 41.4520 -49.1764
v  48.3593 42.7944 -49.2444
v  99.3709 43.5600 -49.5334
v  153.4548 43.5600 -49.5334
v  153.4548 41.4520 -49.1763
v  99.3709 41.4520 -49.1763
v  99.3709 42.8549 -49.2948
v  153.4548 42.8549 -49.2948
v  99.3709 43.7550 98.3161
v  48.8139 43.7550 98.3161
v  48.8139 43.7550 152.4000
v  99.3709 43.7550 152.4001
v  153.4548 43.7550 98.3161
v  153.4548 43.7550 152.4001
v  99.3709 43.7550 47.7591
v  48.8139 43.7550 47.7591
v  153.4548 43.7550 47.7591
v  101.1224 -0.0000 15.6890
v  153.4548 -0.0000 15.6890
v  99.3708 -0.0000 31.3780
v  153.4548 -0.0000 31.3780
v  99.3708 -0.0000 47.0668
v  153.4548 -0.0000 47.0668
v  99.3709 40.5718 47.0669
v  153.4548 40.5718 47.0669
v  16.7438 -0.0000 47.0667
v  1.0548 -0.0000 47.0667
v  1.0548 -0.0000 98.3161
v  16.7438 -0.0000 98.3161
v  32.4327 -0.0000 47.0667
v  32.4327 -0.0000 98.3161
v  48.1215 -0.0000 47.0667
v  48.1215 -0.0000 98.3161
v  48.1216 40.5718 47.0668
v  48.1216 40.5718 98.3161
v  16.7438 -0.0000 31.3779
v  1.0548 -0.0000 31.3779
v  32.4327 -0.0000 31.3779
v  48.1215 -0.0000 31.3779
v  16.7438 -0.0000 15.6890
v  1.0548 -0.0000 15.6890
v  32.4327 -0.0000 15.6890
v  48.1215 -0.0000 15.6890
v  48.1215 -0.0000 152.4000
v  48.1216 40.5718 152.4000
v  32.4327 -0.0000 152.4000
v  16.7438 -0.0000 152.4000
v  1.0548 -0.0000 152.4000
v  48.4786 43.5600 98.3161
v  48.4786 43.5600 152.4000
v  48.1215 41.4520 98.3161
v  48.1215 41.4520 152.4000
v  48.2400 42.8549 98.3161
v  48.2400 42.8549 152.4000
v  48.4786 43.5600 47.3985
v  48.1215 41.4520 47.0668
v  48.3593 42.7944 47.1348
v  99.3709 43.5600 47.4239
v  153.4548 43.5600 47.4239
v  99.3709 41.4520 47.0668
v  153.4548 41.4520 47.0668
v  99.3709 42.8549 47.1853
v  153.4548 42.8549 47.1853
v  153.4548 319.7519 -154.5096
v  153.4548 319.7518 -1.0547
v  1.0548 319.7518 -1.0548
v  1.0548 319.7519 -154.5097
v  153.4548 319.7519 152.4001
v  1.0548 319.7519 152.4000
v  -97.2612 43.7550 -100.4257
v  -46.7042 43.7550 -100.4257
v  -46.7042 43.7550 -154.5097
v  -97.2612 43.7550 -154.5097
v  -151.3452 43.7550 -100.4257
v  -151.3452 43.7550 -154.5097
v  -97.2612 43.7550 -49.8687
v  -46.7042 43.7550 -49.8687
v  -151.3452 43.7550 -49.8687
v  -99.0127 -0.0000 -1.0548
v  -99.0127 -0.0000 -17.7986
v  -151.3452 0.0000 -17.7986
v  -151.3452 0.0000 -1.0548
v  -97.2612 -0.0000 -33.4875
v  -151.3452 0.0000 -33.4876
v  -97.2612 -0.0000 -49.1764
v  -151.3452 0.0000 -49.1764
v  -97.2612 40.5718 -49.1765
v  -151.3452 40.5718 -49.1765
v  -14.6341 -0.0000 -49.1764
v  -14.6341 -0.0000 -100.4257
v  -30.3230 -0.0000 -49.1764
v  -30.3230 -0.0000 -100.4257
v  -46.0118 0.0000 -49.1764
v  -46.0118 -0.0000 -100.4257
v  -46.0119 40.5718 -49.1765
v  -46.0120 40.5718 -100.4257
v  -14.6341 -0.0000 -33.4875
v  -30.3230 -0.0000 -33.4875
v  -46.0118 0.0000 -33.4876
v  -14.6341 -0.0000 -17.7986
v  -30.3230 -0.0000 -17.7986
v  -46.0118 0.0000 -17.7986
v  -14.6341 -0.0000 -1.0548
v  -30.3230 -0.0000 -1.0548
v  -46.0118 0.0000 -1.0548
v  -46.0118 0.0000 -154.5097
v  -46.0120 40.5718 -154.5097
v  -30.3230 0.0000 -154.5097
v  -14.6341 -0.0000 -154.5097
v  -46.3689 43.5601 -100.4257
v  -46.3689 43.5601 -154.5097
v  -46.0119 41.4520 -100.4257
v  -46.0119 41.4520 -154.5097
v  -46.1304 42.8549 -100.4257
v  -46.1304 42.8549 -154.5097
v  -46.3689 43.5601 -49.5082
v  -46.0119 41.4520 -49.1765
v  -46.2496 42.7945 -49.2445
v  -97.2612 43.5600 -49.5334
v  -151.3452 43.5601 -49.5335
v  -97.2612 41.4520 -49.1764
v  -151.3452 41.4520 -49.1764
v  -97.2612 42.8549 -49.2949
v  -151.3452 42.8549 -49.2949
v  -46.7042 43.7550 152.4000
v  -46.7042 43.7550 98.3160
v  -97.2612 43.7550 98.3161
v  -97.2612 43.7550 152.4000
v  -151.3452 43.7550 98.3160
v  -151.3452 43.7550 152.4000
v  -46.7042 43.7550 47.7590
v  -97.2612 43.7550 47.7591
v  -151.3452 43.7550 47.7590
v  -151.3452 0.0000 15.6889
v  -99.0127 -0.0000 15.6890
v  -151.3452 0.0000 31.3779
v  -97.2612 -0.0000 31.3779
v  -151.3452 0.0000 47.0667
v  -97.2612 -0.0000 47.0667
v  -151.3452 40.5718 47.0668
v  -97.2612 40.5718 47.0668
v  -14.6341 -0.0000 47.0667
v  -14.6341 -0.0000 98.3161
v  -30.3230 -0.0000 47.0667
v  -30.3230 -0.0000 98.3161
v  -46.0118 -0.0000 47.0667
v  -46.0118 -0.0000 98.3160
v  -46.0119 40.5718 47.0667
v  -46.0120 40.5718 98.3161
v  -14.6341 -0.0000 31.3779
v  -30.3230 -0.0000 31.3779
v  -46.0118 0.0000 31.3779
v  -14.6341 -0.0000 15.6890
v  -30.3230 -0.0000 15.6890
v  -46.0118 0.0000 15.6889
v  -46.0118 -0.0000 152.4000
v  -46.0120 40.5718 152.4000
v  -30.3230 -0.0000 152.4000
v  -14.6341 -0.0000 152.4000
v  -46.3689 43.5600 152.4000
v  -46.3689 43.5600 98.3161
v  -46.0119 41.4520 98.3161
v  -46.0119 41.4520 152.4000
v  -46.1304 42.8549 152.4000
v  -46.1304 42.8549 98.3161
v  -46.3689 43.5600 47.3985
v  -46.0119 41.4520 47.0667
v  -46.2496 42.7945 47.1348
v  -97.2612 43.5600 47.4238
v  -151.3452 43.5600 47.4238
v  -151.3452 41.4520 47.0667
v  -97.2612 41.4520 47.0667
v  -97.2612 42.8549 47.1852
v  -151.3452 42.8549 47.1852
v  -151.3452 319.7518 -1.0548
v  -151.3452 319.7519 -154.5097
v  -151.3452 319.7519 152.4000
# 230 vertices

vn -0.0038 1.0000 -0.0000
vn 0.0000 1.0000 -0.0000
vn -0.0000 0.0000 1.0000
vn 0.0000 0.0000 1.0000
vn -1.0000 0.0000 -0.0000
vn -0.8432 0.5376 -0.0000
vn -0.5027 0.8645 -0.0000
vn -1.0000 -0.0001 -0.0000
vn -0.9979 0.0649 0.0004
vn -0.9987 0.0518 -0.0000
vn -0.9860 0.1670 -0.0000
vn -0.9860 0.1670 0.0006
vn -0.9601 0.2797 0.0006
vn -0.9970 0.0778 0.0007
vn -0.9870 0.1607 0.0012
vn -0.9716 0.2366 0.0013
vn 0.0000 1.0000 0.0038
vn 0.0001 0.8684 0.4959
vn 0.0000 0.5376 0.8432
vn -0.0000 0.0518 0.9987
vn 0.0001 0.0467 0.9989
vn -0.0000 -0.0001 1.0000
vn 0.0003 0.3218 0.9468
vn 0.0002 0.1641 0.9864
vn -0.0000 0.1670 0.9860
vn 0.0001 0.8723 0.4889
vn 0.0003 0.0394 0.9992
vn 0.0005 0.3231 0.9463
vn 0.0005 0.1491 0.9888
vn 0.0000 0.0000 -1.0000
vn -0.9979 0.0649 -0.0004
vn -0.9601 0.2797 -0.0006
vn -0.9860 0.1670 -0.0006
vn -0.9970 0.0778 -0.0007
vn -0.9716 0.2366 -0.0013
vn -0.9870 0.1607 -0.0012
vn 0.0001 0.8684 -0.4959
vn 0.0000 1.0000 -0.0038
vn 0.0000 0.5376 -0.8432
vn 0.0000 -0.0001 -1.0000
vn 0.0001 0.0467 -0.9989
vn 0.0000 0.0518 -0.9987
vn 0.0002 0.1641 -0.9864
vn 0.0003 0.3218 -0.9468
vn 0.0000 0.1670 -0.9860
vn 0.0001 0.8723 -0.4889
vn 0.0003 0.0394 -0.9992
vn 0.0005 0.1491 -0.9888
vn 0.0005 0.3231 -0.9463
vn 0.0000 -1.0000 -0.0000
vn 0.0000 -1.0000 0.0000
vn 0.0038 1.0000 -0.0000
vn 1.0000 0.0000 -0.0000
vn 0.5027 0.8645 -0.0000
vn 0.8432 0.5376 -0.0000
vn 0.9979 0.0649 0.0004
vn 1.0000 -0.0001 -0.0000
vn 0.9987 0.0518 -0.0000
vn 0.9601 0.2797 0.0006
vn 0.9860 0.1670 0.0006
vn 0.9860 0.1670 -0.0000
vn 0.9970 0.0778 0.0007
vn 0.9716 0.2366 0.0013
vn 0.9870 0.1607 0.0012
vn -0.0001 0.8684 0.4959
vn 0.0000 -0.0001 1.0000
vn -0.0001 0.0467 0.9989
vn 0.0000 0.0518 0.9987
vn -0.0002 0.1641 0.9864
vn -0.0003 0.3218 0.9468
vn 0.0000 0.1670 0.9860
vn -0.0001 0.8723 0.4889
vn -0.0003 0.0394 0.9992
vn -0.0005 0.1491 0.9888
vn -0.0005 0.3231 0.9463
vn -0.0000 0.0000 -1.0000
vn 0.9979 0.0649 -0.0004
vn 0.9860 0.1670 -0.0006
vn 0.9601 0.2797 -0.0006
vn 0.9970 0.0778 -0.0007
vn 0.9870 0.1607 -0.0012
vn 0.9716 0.2366 -0.0013
vn -0.0001 0.8684 -0.4959
vn -0.0001 0.0467 -0.9989
vn -0.0003 0.3218 -0.9468
vn -0.0002 0.1641 -0.9864
vn -0.0001 0.8723 -0.4889
vn -0.0003 0.0394 -0.9992
vn -0.0005 0.3231 -0.9463
vn -0.0005 0.1491 -0.9888
# 90 vertex normals

vt 0.0006 0.3167 0.0000
vt 0.0860 0.3167 0.0000
vt 0.0860 0.3966 0.0000
vt 0.0006 0.3966 0.0000
vt 0.0860 0.4820 0.0000
vt 0.0006 0.4820 0.0000
vt 0.1658 0.3167 0.0000
vt 0.1658 0.3966 0.0000
vt 0.1658 0.4820 0.0000
vt 0.2165 0.4820 0.0000
vt 0.2165 0.3993 0.0000
vt 0.2429 0.3993 0.0000
vt 0.2429 0.4820 0.0000
vt 0.1917 0.4820 0.0000
vt 0.1917 0.3966 0.0000
vt 0.1669 0.4820 0.0000
vt 0.1669 0.3966 0.0000
vt 0.4812 0.5762 0.0000
vt 0.3958 0.5762 0.0000
vt 0.3958 0.5121 0.0000
vt 0.4812 0.5121 0.0000
vt 0.0860 0.2413 0.0000
vt 0.1669 0.2413 0.0000
vt 0.1669 0.2661 0.0000
vt 0.0860 0.2661 0.0000
vt 0.1669 0.2908 0.0000
vt 0.0860 0.2908 0.0000
vt 0.1669 0.3156 0.0000
vt 0.0860 0.3156 0.0000
vt 0.0854 0.5964 0.0000
vt 0.1663 0.5964 0.0000
vt 0.1663 0.6604 0.0000
vt 0.0854 0.6604 0.0000
vt 0.1917 0.2413 0.0000
vt 0.1917 0.2661 0.0000
vt 0.1917 0.2908 0.0000
vt 0.1917 0.3156 0.0000
vt 0.2165 0.2413 0.0000
vt 0.2165 0.2661 0.0000
vt 0.2165 0.2908 0.0000
vt 0.2165 0.3156 0.0000
vt 0.2429 0.2413 0.0000
vt 0.2429 0.2661 0.0000
vt 0.2429 0.2908 0.0000
vt 0.2429 0.3156 0.0000
vt 0.0000 0.5964 0.0000
vt 0.0000 0.6604 0.0000
vt 0.0006 0.2908 0.0000
vt 0.0006 0.3156 0.0000
vt 0.0006 0.2661 0.0000
vt 0.0006 0.2413 0.0000
vt 0.3149 0.5762 0.0000
vt 0.3149 0.5121 0.0000
vt 0.0006 0.3162 0.0000
vt 0.0860 0.3162 0.0000
vt 0.0854 0.6618 0.0000
vt 0.0000 0.6618 0.0000
vt 0.0000 0.6641 0.0000
vt 0.0854 0.6641 0.0000
vt 0.0854 0.6652 0.0000
vt 0.0000 0.6652 0.0000
vt 0.1664 0.3162 0.0000
vt 0.1663 0.6618 0.0000
vt 0.1662 0.6640 0.0000
vt 0.1658 0.6652 0.0000
vt 0.1664 0.3966 0.0000
vt 0.1664 0.4820 0.0000
vt 0.4812 0.5776 0.0000
vt 0.3958 0.5776 0.0000
vt 0.4812 0.5809 0.0000
vt 0.3958 0.5809 0.0000
vt 0.3958 0.5798 0.0000
vt 0.4812 0.5798 0.0000
vt 0.3149 0.5776 0.0000
vt 0.3155 0.5809 0.0000
vt 0.3153 0.5797 0.0000
vt 0.3998 0.3966 0.0000
vt 0.3998 0.3167 0.0000
vt 0.4852 0.3167 0.0000
vt 0.4852 0.3966 0.0000
vt 0.3998 0.4820 0.0000
vt 0.4852 0.4820 0.0000
vt 0.3200 0.3966 0.0000
vt 0.3200 0.3167 0.0000
vt 0.3200 0.4820 0.0000
vt 0.2693 0.3993 0.0000
vt 0.2693 0.4820 0.0000
vt 0.2941 0.3966 0.0000
vt 0.2941 0.4820 0.0000
vt 0.3189 0.3966 0.0000
vt 0.3189 0.4820 0.0000
vt 0.5821 0.5121 0.0000
vt 0.5821 0.5762 0.0000
vt 0.4967 0.5762 0.0000
vt 0.4967 0.5121 0.0000
vt 0.3189 0.2661 0.0000
vt 0.3189 0.2413 0.0000
vt 0.3998 0.2413 0.0000
vt 0.3998 0.2661 0.0000
vt 0.3189 0.2908 0.0000
vt 0.3998 0.2908 0.0000
vt 0.3189 0.3156 0.0000
vt 0.3998 0.3156 0.0000
vt 0.3182 0.6604 0.0000
vt 0.3182 0.5964 0.0000
vt 0.3991 0.5964 0.0000
vt 0.3991 0.6604 0.0000
vt 0.2941 0.2661 0.0000
vt 0.2941 0.2413 0.0000
vt 0.2941 0.2908 0.0000
vt 0.2941 0.3156 0.0000
vt 0.2693 0.2661 0.0000
vt 0.2693 0.2413 0.0000
vt 0.2693 0.2908 0.0000
vt 0.2693 0.3156 0.0000
vt 0.4845 0.5964 0.0000
vt 0.4845 0.6604 0.0000
vt 0.4852 0.2908 0.0000
vt 0.4852 0.3156 0.0000
vt 0.4852 0.2661 0.0000
vt 0.4852 0.2413 0.0000
vt 0.6630 0.5121 0.0000
vt 0.6630 0.5762 0.0000
vt 0.3998 0.3162 0.0000
vt 0.4852 0.3162 0.0000
vt 0.3991 0.6618 0.0000
vt 0.4845 0.6618 0.0000
vt 0.3991 0.6652 0.0000
vt 0.3991 0.6641 0.0000
vt 0.4845 0.6641 0.0000
vt 0.4845 0.6652 0.0000
vt 0.3194 0.3162 0.0000
vt 0.3182 0.6618 0.0000
vt 0.3188 0.6652 0.0000
vt 0.3183 0.6640 0.0000
vt 0.3194 0.3966 0.0000
vt 0.3194 0.4820 0.0000
vt 0.5821 0.5776 0.0000
vt 0.4967 0.5776 0.0000
vt 0.5821 0.5798 0.0000
vt 0.5821 0.5809 0.0000
vt 0.4967 0.5809 0.0000
vt 0.4967 0.5798 0.0000
vt 0.6630 0.5776 0.0000
vt 0.6626 0.5797 0.0000
vt 0.6624 0.5809 0.0000
vt 0.9993 0.4825 0.0000
vt 0.7581 0.4825 0.0000
vt 0.7581 0.2419 0.0000
vt 0.9993 0.2419 0.0000
vt 0.5168 0.4825 0.0000
vt 0.5168 0.2419 0.0000
vt 0.0860 0.0860 0.0000
vt 0.0860 0.1659 0.0000
vt 0.0006 0.1659 0.0000
vt 0.0006 0.0860 0.0000
vt 0.0860 0.0006 0.0000
vt 0.0006 0.0006 0.0000
vt 0.1658 0.0860 0.0000
vt 0.1658 0.1659 0.0000
vt 0.1658 0.0006 0.0000
vt 0.2429 0.0833 0.0000
vt 0.2165 0.0833 0.0000
vt 0.2165 0.0006 0.0000
vt 0.2429 0.0006 0.0000
vt 0.1917 0.0860 0.0000
vt 0.1917 0.0006 0.0000
vt 0.1669 0.0860 0.0000
vt 0.1669 0.0006 0.0000
vt 0.0854 0.5121 0.0000
vt 0.0854 0.5762 0.0000
vt 0.0000 0.5762 0.0000
vt 0.0000 0.5121 0.0000
vt 0.1669 0.2165 0.0000
vt 0.0860 0.2165 0.0000
vt 0.1669 0.1917 0.0000
vt 0.0860 0.1917 0.0000
vt 0.1669 0.1670 0.0000
vt 0.0860 0.1670 0.0000
vt 0.3182 0.7447 0.0000
vt 0.3182 0.6806 0.0000
vt 0.3991 0.6806 0.0000
vt 0.3991 0.7447 0.0000
vt 0.1917 0.2165 0.0000
vt 0.1917 0.1917 0.0000
vt 0.1917 0.1670 0.0000
vt 0.2165 0.2165 0.0000
vt 0.2165 0.1917 0.0000
vt 0.2165 0.1670 0.0000
vt 0.2429 0.2165 0.0000
vt 0.2429 0.1917 0.0000
vt 0.2429 0.1670 0.0000
vt 0.4845 0.6806 0.0000
vt 0.4845 0.7447 0.0000
vt 0.0006 0.1917 0.0000
vt 0.0006 0.1670 0.0000
vt 0.0006 0.2165 0.0000
vt 0.1663 0.5121 0.0000
vt 0.1663 0.5762 0.0000
vt 0.0860 0.1664 0.0000
vt 0.0006 0.1664 0.0000
vt 0.3991 0.7461 0.0000
vt 0.4845 0.7461 0.0000
vt 0.3991 0.7494 0.0000
vt 0.3991 0.7483 0.0000
vt 0.4845 0.7483 0.0000
vt 0.4845 0.7494 0.0000
vt 0.1664 0.1664 0.0000
vt 0.3182 0.7461 0.0000
vt 0.3188 0.7494 0.0000
vt 0.3183 0.7482 0.0000
vt 0.1664 0.0860 0.0000
vt 0.1664 0.0006 0.0000
vt 0.0854 0.5776 0.0000
vt 0.0000 0.5776 0.0000
vt 0.0854 0.5798 0.0000
vt 0.0854 0.5809 0.0000
vt 0.0000 0.5809 0.0000
vt 0.0000 0.5798 0.0000
vt 0.1663 0.5776 0.0000
vt 0.1659 0.5797 0.0000
vt 0.1657 0.5809 0.0000
vt 0.4852 0.1659 0.0000
vt 0.3998 0.1659 0.0000
vt 0.3998 0.0860 0.0000
vt 0.4852 0.0860 0.0000
vt 0.3998 0.0006 0.0000
vt 0.4852 0.0006 0.0000
vt 0.3200 0.1659 0.0000
vt 0.3200 0.0860 0.0000
vt 0.3200 0.0006 0.0000
vt 0.2693 0.0006 0.0000
vt 0.2693 0.0833 0.0000
vt 0.2941 0.0006 0.0000
vt 0.2941 0.0860 0.0000
vt 0.3189 0.0006 0.0000
vt 0.3189 0.0860 0.0000
vt 0.9779 0.5762 0.0000
vt 0.8925 0.5762 0.0000
vt 0.8925 0.5121 0.0000
vt 0.9779 0.5121 0.0000
vt 0.3189 0.2165 0.0000
vt 0.3998 0.2165 0.0000
vt 0.3189 0.1917 0.0000
vt 0.3998 0.1917 0.0000
vt 0.3189 0.1670 0.0000
vt 0.3998 0.1670 0.0000
vt 0.0854 0.6806 0.0000
vt 0.1663 0.6806 0.0000
vt 0.1663 0.7447 0.0000
vt 0.0854 0.7447 0.0000
vt 0.2941 0.2165 0.0000
vt 0.2941 0.1917 0.0000
vt 0.2941 0.1670 0.0000
vt 0.2693 0.2165 0.0000
vt 0.2693 0.1917 0.0000
vt 0.2693 0.1670 0.0000
vt 0.0000 0.6806 0.0000
vt 0.0000 0.7447 0.0000
vt 0.4852 0.1917 0.0000
vt 0.4852 0.1670 0.0000
vt 0.4852 0.2165 0.0000
vt 0.8116 0.5762 0.0000
vt 0.8116 0.5121 0.0000
vt 0.4852 0.1664 0.0000
vt 0.3998 0.1664 0.0000
vt 0.0854 0.7461 0.0000
vt 0.0000 0.7461 0.0000
vt 0.0000 0.7483 0.0000
vt 0.0854 0.7483 0.0000
vt 0.0854 0.7494 0.0000
vt 0.0000 0.7494 0.0000
vt 0.3194 0.1664 0.0000
vt 0.1663 0.7461 0.0000
vt 0.1662 0.7482 0.0000
vt 0.1658 0.7494 0.0000
vt 0.3194 0.0860 0.0000
vt 0.3194 0.0006 0.0000
vt 0.9779 0.5776 0.0000
vt 0.8925 0.5776 0.0000
vt 0.9779 0.5809 0.0000
vt 0.8925 0.5809 0.0000
vt 0.8925 0.5798 0.0000
vt 0.9779 0.5798 0.0000
vt 0.8116 0.5776 0.0000
vt 0.8121 0.5809 0.0000
vt 0.8119 0.5797 0.0000
vt 0.7581 0.0013 0.0000
vt 0.9993 0.0013 0.0000
vt 0.5168 0.0013 0.0000
# 290 texture coords

g polySurface12
usemtl corridor_open_initialShadingGroup
s 1
f 1/1/1 2/2/2 3/3/2 4/4/2 
f 4/4/2 3/3/2 5/5/2 6/6/2 
f 2/2/2 7/7/2 8/8/2 3/3/2 
f 3/3/2 8/8/2 9/9/2 5/5/2 
s 2
f 10/10/2 11/11/2 12/12/2 13/13/2 
f 14/14/2 15/15/2 11/11/2 10/10/2 
f 16/16/2 17/17/2 15/15/2 14/14/2 
s 3
f 18/18/3 19/19/4 17/20/4 16/21/3 
s 4
f 20/22/2 21/23/2 22/24/2 23/25/2 
f 23/25/2 22/24/2 24/26/2 25/27/2 
f 25/27/2 24/26/2 26/28/2 27/29/2 
s 5
f 27/30/5 26/31/5 28/32/5 29/33/5 
s 4
f 21/23/2 30/34/2 31/35/2 22/24/2 
f 22/24/2 31/35/2 32/36/2 24/26/2 
f 24/26/2 32/36/2 33/37/2 26/28/2 
f 30/34/2 34/38/2 35/39/2 31/35/2 
f 31/35/2 35/39/2 36/40/2 32/36/2 
f 32/36/2 36/40/2 37/41/2 33/37/2 
f 34/38/2 38/42/2 39/43/2 35/39/2 
f 35/39/2 39/43/2 40/44/2 36/40/2 
f 36/40/2 40/44/2 41/45/2 37/41/2 
s 5
f 42/46/5 27/30/5 29/33/5 43/47/5 
s 4
f 44/48/2 25/27/2 27/29/2 42/49/2 
f 45/50/2 23/25/2 25/27/2 44/48/2 
f 46/51/2 20/22/2 23/25/2 45/50/2 
s 3
f 19/19/4 28/52/3 26/53/3 17/20/4 
s 2
f 17/17/2 26/28/2 33/37/2 15/15/2 
f 15/15/2 33/37/2 37/41/2 11/11/2 
f 11/11/2 37/41/2 41/45/2 12/12/2 
s 6
f 47/54/6 48/55/7 2/2/7 1/1/1 
s 7
f 43/47/5 29/33/8 49/56/9 50/57/10 
f 51/58/11 52/59/12 48/60/13 47/61/6 
f 50/57/10 49/56/9 52/59/12 51/58/11 
s 6
f 48/55/7 53/62/7 7/7/7 2/2/7 
s 7
f 29/33/8 28/32/8 54/63/14 49/56/9 
f 52/59/12 55/64/15 53/65/16 48/60/13 
f 49/56/9 54/63/14 55/64/15 52/59/12 
s 8
f 9/9/17 8/8/18 56/66/18 57/67/19 
s 9
f 58/68/20 59/69/21 19/19/22 18/18/3 
f 57/70/19 56/71/23 60/72/24 61/73/25 
f 61/73/25 60/72/24 59/69/21 58/68/20 
s 8
f 56/66/18 8/8/18 7/7/26 53/62/26 
s 9
f 59/69/21 54/74/27 28/52/22 19/19/22 
f 56/71/23 53/75/28 55/76/29 60/72/24 
f 60/72/24 55/76/29 54/74/27 59/69/21 
s 11
f 62/77/2 63/78/2 64/79/1 65/80/2 
f 66/81/2 62/77/2 65/80/2 67/82/2 
f 68/83/2 69/84/2 63/78/2 62/77/2 
f 70/85/2 68/83/2 62/77/2 66/81/2 
s 12
f 12/12/2 71/86/2 72/87/2 13/13/2 
f 71/86/2 73/88/2 74/89/2 72/87/2 
f 73/88/2 75/90/2 76/91/2 74/89/2 
s 13
f 75/92/30 77/93/30 78/94/30 76/95/30 
s 14
f 79/96/2 80/97/2 81/98/2 82/99/2 
f 83/100/2 79/96/2 82/99/2 84/101/2 
f 85/102/2 83/100/2 84/101/2 86/103/2 
s 15
f 87/104/5 85/105/5 86/106/5 88/107/5 
s 14
f 89/108/2 90/109/2 80/97/2 79/96/2 
f 91/110/2 89/108/2 79/96/2 83/100/2 
f 92/111/2 91/110/2 83/100/2 85/102/2 
f 93/112/2 94/113/2 90/109/2 89/108/2 
f 95/114/2 93/112/2 89/108/2 91/110/2 
f 96/115/2 95/114/2 91/110/2 92/111/2 
f 39/43/2 38/42/2 94/113/2 93/112/2 
f 40/44/2 39/43/2 93/112/2 95/114/2 
f 41/45/2 40/44/2 95/114/2 96/115/2 
s 15
f 88/107/5 86/106/5 97/116/5 98/117/5 
s 14
f 86/103/2 84/101/2 99/118/2 97/119/2 
f 84/101/2 82/99/2 100/120/2 99/118/2 
f 82/99/2 81/98/2 101/121/2 100/120/2 
s 13
f 85/122/30 87/123/30 77/93/30 75/92/30 
s 12
f 92/111/2 85/102/2 75/90/2 73/88/2 
f 96/115/2 92/111/2 73/88/2 71/86/2 
f 41/45/2 96/115/2 71/86/2 12/12/2 
s 16
f 63/78/7 102/124/7 103/125/6 64/79/1 
s 17
f 104/126/31 88/107/8 98/117/5 105/127/10 
f 102/128/32 106/129/33 107/130/11 103/131/6 
f 106/129/33 104/126/31 105/127/10 107/130/11 
s 16
f 69/84/7 108/132/7 102/124/7 63/78/7 
s 17
f 109/133/34 87/104/8 88/107/8 104/126/31 
f 108/134/35 110/135/36 106/129/33 102/128/32 
f 110/135/36 109/133/34 104/126/31 106/129/33 
s 19
f 111/136/37 68/83/37 70/85/38 112/137/39 
s 20
f 77/93/40 113/138/41 114/139/42 78/94/30 
f 115/140/43 111/141/44 112/142/39 116/143/45 
f 113/138/41 115/140/43 116/143/45 114/139/42 
s 19
f 111/136/37 108/132/46 69/84/46 68/83/37 
s 20
f 87/123/40 109/144/47 113/138/41 77/93/40 
f 110/145/48 108/146/49 111/141/44 115/140/43 
f 109/144/47 110/145/48 115/140/43 113/138/41 
s off
f 117/147/50 118/148/50 119/149/50 120/150/50 
f 119/149/51 118/148/51 121/151/50 122/152/51 
s 21
f 123/153/2 124/154/2 125/155/52 126/156/2 
f 127/157/2 123/153/2 126/156/2 128/158/2 
f 129/159/2 130/160/2 124/154/2 123/153/2 
f 131/161/2 129/159/2 123/153/2 127/157/2 
s 22
f 132/162/2 133/163/2 134/164/2 135/165/2 
f 133/163/2 136/166/2 137/167/2 134/164/2 
f 136/166/2 138/168/2 139/169/2 137/167/2 
s 23
f 138/170/4 140/171/4 141/172/4 139/173/4 
s 24
f 142/174/2 21/23/2 20/22/2 143/175/2 
f 144/176/2 142/174/2 143/175/2 145/177/2 
f 146/178/2 144/176/2 145/177/2 147/179/2 
s 25
f 148/180/53 146/181/53 147/182/53 149/183/53 
s 24
f 150/184/2 30/34/2 21/23/2 142/174/2 
f 151/185/2 150/184/2 142/174/2 144/176/2 
f 152/186/2 151/185/2 144/176/2 146/178/2 
f 153/187/2 34/38/2 30/34/2 150/184/2 
f 154/188/2 153/187/2 150/184/2 151/185/2 
f 155/189/2 154/188/2 151/185/2 152/186/2 
f 156/190/2 38/42/2 34/38/2 153/187/2 
f 157/191/2 156/190/2 153/187/2 154/188/2 
f 158/192/2 157/191/2 154/188/2 155/189/2 
s 25
f 149/183/53 147/182/53 159/193/53 160/194/53 
s 24
f 147/179/2 145/177/2 161/195/2 159/196/2 
f 145/177/2 143/175/2 162/197/2 161/195/2 
f 143/175/2 20/22/2 46/51/2 162/197/2 
s 23
f 146/198/4 148/199/4 140/171/4 138/170/4 
s 22
f 152/186/2 146/178/2 138/168/2 136/166/2 
f 155/189/2 152/186/2 136/166/2 133/163/2 
f 158/192/2 155/189/2 133/163/2 132/162/2 
s 26
f 124/154/54 163/200/54 164/201/55 125/155/52 
s 27
f 165/202/56 149/183/57 160/194/53 166/203/58 
f 163/204/59 167/205/60 168/206/61 164/207/55 
f 167/205/60 165/202/56 166/203/58 168/206/61 
s 26
f 130/160/54 169/208/54 163/200/54 124/154/54 
s 27
f 170/209/62 148/180/57 149/183/57 165/202/56 
f 169/210/63 171/211/64 167/205/60 163/204/59 
f 171/211/64 170/209/62 165/202/56 167/205/60 
s 29
f 172/212/65 129/159/65 131/161/17 173/213/19 
s 30
f 140/171/66 174/214/67 175/215/68 141/172/4 
f 176/216/69 172/217/70 173/218/19 177/219/71 
f 174/214/67 176/216/69 177/219/71 175/215/68 
s 29
f 172/212/65 169/208/72 130/160/72 129/159/65 
s 30
f 148/199/66 170/220/73 174/214/67 140/171/66 
f 171/221/74 169/222/75 172/217/70 176/216/69 
f 170/220/73 171/221/74 176/216/69 174/214/67 
s 31
f 178/223/52 179/224/2 180/225/2 181/226/2 
f 181/226/2 180/225/2 182/227/2 183/228/2 
f 179/224/2 184/229/2 185/230/2 180/225/2 
f 180/225/2 185/230/2 186/231/2 182/227/2 
s 32
f 187/232/2 188/233/2 132/162/2 135/165/2 
f 189/234/2 190/235/2 188/233/2 187/232/2 
f 191/236/2 192/237/2 190/235/2 189/234/2 
s 33
f 193/238/30 194/239/30 192/240/30 191/241/30 
s 34
f 81/98/2 80/97/2 195/242/2 196/243/2 
f 196/243/2 195/242/2 197/244/2 198/245/2 
f 198/245/2 197/244/2 199/246/2 200/247/2 
s 35
f 200/248/53 199/249/53 201/250/53 202/251/53 
s 34
f 80/97/2 90/109/2 203/252/2 195/242/2 
f 195/242/2 203/252/2 204/253/2 197/244/2 
f 197/244/2 204/253/2 205/254/2 199/246/2 
f 90/109/2 94/113/2 206/255/2 203/252/2 
f 203/252/2 206/255/2 207/256/2 204/253/2 
f 204/253/2 207/256/2 208/257/2 205/254/2 
f 94/113/2 38/42/2 156/190/2 206/255/2 
f 206/255/2 156/190/2 157/191/2 207/256/2 
f 207/256/2 157/191/2 158/192/2 208/257/2 
s 35
f 209/258/53 200/248/53 202/251/53 210/259/53 
s 34
f 211/260/2 198/245/2 200/247/2 209/261/2 
f 212/262/2 196/243/2 198/245/2 211/260/2 
f 101/121/2 81/98/2 196/243/2 212/262/2 
s 33
f 194/239/30 201/263/76 199/264/76 192/240/30 
s 32
f 192/237/2 199/246/2 205/254/2 190/235/2 
f 190/235/2 205/254/2 208/257/2 188/233/2 
f 188/233/2 208/257/2 158/192/2 132/162/2 
s 36
f 213/265/55 214/266/54 179/224/54 178/223/52 
s 37
f 210/259/53 202/251/57 215/267/77 216/268/58 
f 217/269/61 218/270/78 214/271/79 213/272/55 
f 216/268/58 215/267/77 218/270/78 217/269/61 
s 36
f 214/266/54 219/273/54 184/229/54 179/224/54 
s 37
f 202/251/57 201/250/57 220/274/80 215/267/77 
f 218/270/78 221/275/81 219/276/82 214/271/79 
f 215/267/77 220/274/80 221/275/81 218/270/78 
s 38
f 186/231/38 185/230/83 222/277/83 223/278/39 
s 39
f 224/279/42 225/280/84 194/239/40 193/238/30 
f 223/281/39 222/282/85 226/283/86 227/284/45 
f 227/284/45 226/283/86 225/280/84 224/279/42 
s 38
f 222/277/83 185/230/83 184/229/87 219/273/87 
s 39
f 225/280/84 220/285/88 201/263/40 194/239/40 
f 222/282/85 219/286/89 221/287/90 226/283/86 
f 226/283/86 221/287/90 220/285/88 225/280/84 
s off
f 119/149/50 228/288/50 229/289/50 120/150/50 
f 230/290/50 228/288/51 119/149/51 122/152/51 
# 184 polygons

