# 3ds Max Wavefront OBJ Exporter v0.97b - (c)2007 guruware
# File Created: 27.01.2013 13:25:12

mtllib t_intersection_tile.mtl

#
# object corridor_T_intersection_polySurface12
#

v  0.0001 319.7518 -152.3999
v  0.0001 43.7550 -152.3999
v  153.4549 43.7550 -152.3999
v  153.4549 319.7519 -152.3999
v  153.4548 319.7519 152.4001
v  -0.0000 319.7518 152.4001
v  99.3709 43.7550 98.3161
v  153.4548 43.7550 98.3161
v  153.4549 43.7550 47.7591
v  99.3709 43.7550 47.7591
v  153.4548 43.7550 152.4001
v  99.3709 43.7550 152.4001
v  48.8139 43.7550 47.7591
v  48.8139 43.7550 98.3161
v  48.8139 43.7550 152.4001
v  0.0000 -0.0000 100.0677
v  -0.0000 -0.0000 152.4001
v  16.7438 -0.0000 152.4001
v  16.7438 -0.0000 100.0677
v  32.4327 -0.0000 98.3161
v  32.4327 -0.0000 152.4001
v  48.1215 -0.0000 152.4001
v  48.1215 -0.0000 98.3161
v  48.1217 40.5718 152.4001
v  48.1216 40.5718 98.3161
v  48.1216 -0.0000 -15.6888
v  48.1216 -0.0000 0.0001
v  99.3709 -0.0000 0.0001
v  99.3709 -0.0000 -15.6888
v  48.1216 -0.0000 -31.3778
v  99.3709 -0.0000 -31.3778
v  99.3709 -0.0000 -47.0667
v  48.1216 -0.0000 -47.0667
v  99.3709 40.5718 -47.0667
v  48.1216 40.5718 -47.0667
v  48.1216 -0.0000 15.6890
v  99.3709 -0.0000 15.6890
v  48.1216 -0.0000 31.3779
v  99.3709 -0.0000 31.3780
v  48.1216 -0.0000 47.0668
v  99.3709 -0.0000 47.0668
v  48.1216 40.5718 47.0669
v  99.3709 40.5718 47.0669
v  32.4328 -0.0000 -15.6888
v  32.4328 -0.0000 0.0001
v  32.4328 -0.0000 -31.3778
v  32.4328 -0.0000 -47.0667
v  32.4328 40.5718 -47.0667
v  32.4328 -0.0000 15.6890
v  32.4328 -0.0000 31.3779
v  32.4328 -0.0000 47.0668
v  16.7438 -0.0000 -15.6888
v  16.7438 -0.0000 0.0001
v  16.7438 -0.0000 -31.3778
v  16.7439 -0.0000 -47.0667
v  16.7439 40.5718 -47.0667
v  16.7438 -0.0000 15.6890
v  16.7438 -0.0000 31.3779
v  16.7438 -0.0000 47.0668
v  0.0000 -0.0000 0.0001
v  0.0000 -0.0000 -15.6888
v  0.0000 -0.0000 -31.3778
v  0.0000 -0.0000 -47.0667
v  0.0000 40.5718 -47.0667
v  0.0000 -0.0000 15.6890
v  0.0000 -0.0000 31.3779
v  0.0000 -0.0000 47.0668
v  0.0001 43.7550 -98.3157
v  0.0000 43.7550 -47.7589
v  16.7439 43.7550 -47.7589
v  16.7439 43.7550 -98.3157
v  16.7439 43.7550 -152.3999
v  32.4328 43.7550 -47.7589
v  32.4328 43.7550 -98.3157
v  32.4328 43.7550 -152.3999
v  48.1216 43.7550 -47.7589
v  48.1216 43.7550 -98.3157
v  48.1216 43.7550 -152.3999
v  99.3709 43.7550 -47.7589
v  99.3709 43.7550 -98.3157
v  99.3710 43.7550 -152.3999
v  48.1216 43.5600 -47.4236
v  99.3709 43.5600 -47.4236
v  99.3709 41.4520 -47.0666
v  48.1216 41.4520 -47.0666
v  48.1216 42.8549 -47.1851
v  99.3709 42.8549 -47.1851
v  32.4328 43.5600 -47.4236
v  32.4328 41.4520 -47.0666
v  32.4328 42.8549 -47.1851
v  16.7439 43.5600 -47.4236
v  16.7439 41.4520 -47.0666
v  16.7439 42.8549 -47.1851
v  0.0000 43.5600 -47.4236
v  0.0000 41.4520 -47.0666
v  0.0000 42.8549 -47.1851
v  153.4549 40.5718 47.0669
v  153.4549 -0.0000 47.0668
v  153.4549 -0.0000 31.3779
v  153.4549 -0.0000 15.6890
v  153.4549 -0.0000 0.0001
v  153.4549 -0.0000 -15.6888
v  153.4549 -0.0000 -31.3778
v  153.4549 -0.0000 -47.0667
v  153.4549 40.5718 -47.0667
v  153.4549 41.4520 -47.0666
v  153.4549 42.8549 -47.1851
v  153.4549 43.5600 -47.4236
v  153.4549 43.7550 -47.7589
v  153.4549 43.7550 -98.3157
v  99.3709 43.5600 47.4239
v  153.4549 43.5600 47.4239
v  99.3709 41.4520 47.0668
v  153.4549 41.4520 47.0668
v  153.4549 42.8549 47.1853
v  99.3709 42.8549 47.1853
v  48.4534 43.5600 47.4239
v  48.1216 41.4520 47.0668
v  48.1897 42.7944 47.3046
v  48.4786 43.5600 98.3161
v  48.4786 43.5600 152.4001
v  48.1215 41.4520 98.3161
v  48.1215 41.4520 152.4001
v  48.2401 42.8549 152.4001
v  48.2401 42.8549 98.3161
v  -153.4548 43.7550 -152.3999
v  -153.4548 319.7519 -152.3999
v  -153.4548 319.7519 152.4001
v  -153.4548 43.7550 47.7591
v  -153.4548 43.7550 98.3161
v  -99.3709 43.7550 98.3161
v  -99.3709 43.7550 47.7591
v  -153.4548 43.7550 152.4001
v  -99.3709 43.7550 152.4001
v  -48.8139 43.7550 47.7591
v  -48.8139 43.7550 98.3161
v  -48.8139 43.7550 152.4001
v  -16.7438 -0.0000 152.4001
v  -16.7438 -0.0000 100.0677
v  -32.4327 -0.0000 152.4001
v  -32.4327 -0.0000 98.3161
v  -48.1215 -0.0000 98.3161
v  -48.1215 -0.0000 152.4001
v  -48.1217 40.5718 152.4001
v  -48.1216 40.5718 98.3161
v  -48.1215 -0.0000 -15.6888
v  -99.3709 -0.0000 -15.6888
v  -99.3709 -0.0000 0.0001
v  -48.1215 -0.0000 0.0001
v  -48.1215 -0.0000 -31.3778
v  -99.3709 -0.0000 -31.3778
v  -48.1215 -0.0000 -47.0667
v  -99.3708 -0.0000 -47.0667
v  -99.3708 40.5718 -47.0667
v  -48.1215 40.5718 -47.0667
v  -99.3709 -0.0000 15.6890
v  -48.1215 -0.0000 15.6890
v  -48.1215 -0.0000 31.3779
v  -99.3709 -0.0000 31.3780
v  -99.3709 -0.0000 47.0668
v  -48.1215 -0.0000 47.0668
v  -99.3709 40.5718 47.0669
v  -48.1216 40.5718 47.0669
v  -32.4327 -0.0000 0.0001
v  -32.4327 -0.0000 -15.6888
v  -32.4327 -0.0000 -31.3778
v  -32.4327 -0.0000 -47.0667
v  -32.4327 40.5718 -47.0667
v  -32.4327 -0.0000 15.6890
v  -32.4327 -0.0000 31.3779
v  -32.4327 -0.0000 47.0668
v  -16.7438 -0.0000 -15.6888
v  -16.7438 -0.0000 0.0001
v  -16.7438 -0.0000 -31.3778
v  -16.7437 -0.0000 -47.0667
v  -16.7437 40.5718 -47.0667
v  -16.7438 -0.0000 15.6890
v  -16.7438 -0.0000 31.3779
v  -16.7438 -0.0000 47.0668
v  -16.7437 43.7550 -98.3157
v  -16.7437 43.7550 -47.7589
v  -16.7437 43.7550 -152.3999
v  -32.4327 43.7550 -98.3157
v  -32.4327 43.7550 -47.7589
v  -32.4326 43.7550 -152.3999
v  -48.1215 43.7550 -47.7589
v  -48.1215 43.7550 -98.3157
v  -48.1214 43.7550 -152.3999
v  -99.3708 43.7550 -47.7589
v  -99.3708 43.7550 -98.3157
v  -99.3708 43.7550 -152.3999
v  -99.3708 43.5600 -47.4236
v  -48.1215 43.5600 -47.4236
v  -99.3708 41.4520 -47.0666
v  -48.1215 41.4520 -47.0666
v  -99.3708 42.8549 -47.1851
v  -48.1215 42.8549 -47.1851
v  -32.4327 43.5600 -47.4236
v  -32.4327 41.4520 -47.0666
v  -32.4327 42.8549 -47.1851
v  -16.7437 43.5600 -47.4236
v  -16.7437 41.4520 -47.0666
v  -16.7437 42.8549 -47.1851
v  -153.4548 40.5718 47.0669
v  -153.4548 -0.0000 47.0668
v  -153.4548 -0.0000 31.3779
v  -153.4548 -0.0000 15.6890
v  -153.4548 -0.0000 0.0001
v  -153.4548 -0.0000 -15.6888
v  -153.4548 -0.0000 -31.3778
v  -153.4548 -0.0000 -47.0667
v  -153.4548 40.5718 -47.0667
v  -153.4548 41.4520 -47.0666
v  -153.4548 42.8549 -47.1851
v  -153.4548 43.5600 -47.4236
v  -153.4548 43.7550 -47.7589
v  -153.4548 43.7550 -98.3157
v  -99.3709 43.5600 47.4239
v  -153.4548 43.5600 47.4239
v  -153.4548 41.4520 47.0668
v  -99.3709 41.4520 47.0668
v  -99.3709 42.8549 47.1853
v  -153.4548 42.8549 47.1853
v  -48.4533 43.5600 47.4239
v  -48.1216 41.4520 47.0668
v  -48.1896 42.7944 47.3046
v  -48.4786 43.5600 152.4001
v  -48.4786 43.5600 98.3161
v  -48.1215 41.4520 98.3161
v  -48.1215 41.4520 152.4001
v  -48.2401 42.8549 152.4001
v  -48.2401 42.8549 98.3161
# 232 vertices

vn 0.0000 0.0000 1.0000
vn 0.0000 -1.0000 -0.0000
vn 0.0000 1.0000 -0.0000
vn 0.0000 1.0000 -0.0038
vn -1.0000 0.0000 -0.0000
vn 0.0000 0.0000 -1.0000
vn 0.0000 0.8645 0.5027
vn 0.0000 0.0518 0.9987
vn 0.0000 -0.0001 1.0000
vn 0.0000 0.3205 0.9473
vn 0.0000 0.1670 0.9860
vn 0.0000 -0.0000 1.0000
vn 0.0000 0.5376 0.8432
vn 0.0000 1.0000 0.0038
vn 0.0000 0.8645 -0.5027
vn 0.0000 0.5376 -0.8432
vn 0.0000 -0.0001 -1.0000
vn -0.0004 0.0649 -0.9979
vn 0.0000 0.0518 -0.9987
vn -0.0006 0.2797 -0.9601
vn 0.0000 0.1670 -0.9860
vn -0.0006 0.1670 -0.9860
vn -0.0007 0.0778 -0.9970
vn -0.0013 0.2366 -0.9716
vn -0.0012 0.1607 -0.9870
vn -0.4959 0.8684 0.0001
vn -0.8432 0.5376 -0.0000
vn -0.0038 1.0000 -0.0000
vn -0.9989 0.0467 0.0001
vn -1.0000 -0.0001 -0.0000
vn -0.9987 0.0518 -0.0000
vn -0.9860 0.1670 -0.0000
vn -0.9468 0.3218 0.0003
vn -0.9864 0.1641 0.0002
vn -0.4889 0.8723 0.0001
vn -0.9992 0.0394 0.0003
vn -0.9888 0.1491 0.0005
vn -0.9463 0.3231 0.0005
vn -0.0000 -1.0000 -0.0000
vn 1.0000 0.0000 -0.0000
vn 1.0000 0.0000 0.0000
vn 0.0004 0.0649 -0.9979
vn 0.0006 0.2797 -0.9601
vn 0.0006 0.1670 -0.9860
vn 0.0007 0.0778 -0.9970
vn 0.0013 0.2366 -0.9716
vn 0.0012 0.1607 -0.9870
vn 0.4959 0.8684 0.0001
vn 0.0038 1.0000 -0.0000
vn 0.8432 0.5376 -0.0000
vn 0.9989 0.0467 0.0001
vn 0.9987 0.0518 -0.0000
vn 1.0000 -0.0001 -0.0000
vn 0.9860 0.1670 -0.0000
vn 0.9864 0.1641 0.0002
vn 0.9468 0.3218 0.0003
vn 0.4889 0.8723 0.0001
vn 0.9992 0.0394 0.0003
vn 0.9888 0.1491 0.0005
vn 0.9463 0.3231 0.0005
# 60 vertex normals

vt 0.0010 0.2226 0.0000
vt 0.4011 0.2226 0.0000
vt 0.4011 0.4445 0.0000
vt 0.0010 0.4445 0.0000
vt 0.7194 0.0009 0.0000
vt 0.9420 0.0009 0.0000
vt 0.9420 0.4416 0.0000
vt 0.7194 0.4416 0.0000
vt 0.3672 0.5559 0.0000
vt 0.4454 0.5559 0.0000
vt 0.4454 0.6292 0.0000
vt 0.3672 0.6292 0.0000
vt 0.4454 0.4774 0.0000
vt 0.3672 0.4774 0.0000
vt 0.2941 0.6292 0.0000
vt 0.2941 0.5559 0.0000
vt 0.2941 0.4774 0.0000
vt 0.2235 0.5533 0.0000
vt 0.2235 0.4774 0.0000
vt 0.2477 0.4774 0.0000
vt 0.2477 0.5533 0.0000
vt 0.2704 0.5559 0.0000
vt 0.2704 0.4774 0.0000
vt 0.2931 0.4774 0.0000
vt 0.2931 0.5559 0.0000
vt 0.1538 0.9950 0.0000
vt 0.0753 0.9950 0.0000
vt 0.0753 0.9361 0.0000
vt 0.1538 0.9361 0.0000
vt 0.2931 0.7213 0.0000
vt 0.2931 0.6986 0.0000
vt 0.3672 0.6986 0.0000
vt 0.3672 0.7213 0.0000
vt 0.2931 0.7441 0.0000
vt 0.3672 0.7441 0.0000
vt 0.3672 0.7669 0.0000
vt 0.2931 0.7669 0.0000
vt 0.4645 0.3663 0.0000
vt 0.4057 0.3663 0.0000
vt 0.4057 0.2922 0.0000
vt 0.4645 0.2922 0.0000
vt 0.2931 0.6758 0.0000
vt 0.3672 0.6758 0.0000
vt 0.2931 0.6530 0.0000
vt 0.3672 0.6530 0.0000
vt 0.2931 0.6303 0.0000
vt 0.3672 0.6303 0.0000
vt 0.5404 0.4771 0.0000
vt 0.6148 0.4771 0.0000
vt 0.6148 0.5360 0.0000
vt 0.5404 0.5360 0.0000
vt 0.2704 0.7213 0.0000
vt 0.2704 0.6986 0.0000
vt 0.2704 0.7441 0.0000
vt 0.2704 0.7669 0.0000
vt 0.4057 0.2695 0.0000
vt 0.4645 0.2695 0.0000
vt 0.2704 0.6758 0.0000
vt 0.2704 0.6530 0.0000
vt 0.2704 0.6303 0.0000
vt 0.2477 0.7213 0.0000
vt 0.2477 0.6986 0.0000
vt 0.2477 0.7441 0.0000
vt 0.2477 0.7669 0.0000
vt 0.4057 0.2468 0.0000
vt 0.4645 0.2468 0.0000
vt 0.2477 0.6758 0.0000
vt 0.2477 0.6530 0.0000
vt 0.2477 0.6303 0.0000
vt 0.2235 0.6986 0.0000
vt 0.2235 0.7213 0.0000
vt 0.2235 0.7441 0.0000
vt 0.2235 0.7669 0.0000
vt 0.4057 0.2226 0.0000
vt 0.4645 0.2226 0.0000
vt 0.2235 0.6758 0.0000
vt 0.2235 0.6530 0.0000
vt 0.2235 0.6303 0.0000
vt 0.2235 0.8413 0.0000
vt 0.2235 0.7679 0.0000
vt 0.2477 0.7679 0.0000
vt 0.2477 0.8413 0.0000
vt 0.2235 0.9198 0.0000
vt 0.2477 0.9198 0.0000
vt 0.2704 0.7679 0.0000
vt 0.2704 0.8413 0.0000
vt 0.2704 0.9198 0.0000
vt 0.2931 0.7679 0.0000
vt 0.2931 0.8413 0.0000
vt 0.2931 0.9198 0.0000
vt 0.3672 0.7679 0.0000
vt 0.3672 0.8413 0.0000
vt 0.3672 0.9198 0.0000
vt 0.2931 0.7674 0.0000
vt 0.3672 0.7674 0.0000
vt 0.4044 0.3663 0.0000
vt 0.4044 0.2922 0.0000
vt 0.4013 0.2922 0.0000
vt 0.4024 0.2922 0.0000
vt 0.4024 0.3663 0.0000
vt 0.4013 0.3663 0.0000
vt 0.2704 0.7674 0.0000
vt 0.4044 0.2695 0.0000
vt 0.4024 0.2695 0.0000
vt 0.4013 0.2695 0.0000
vt 0.2477 0.7674 0.0000
vt 0.4044 0.2468 0.0000
vt 0.4013 0.2468 0.0000
vt 0.4024 0.2468 0.0000
vt 0.2235 0.7674 0.0000
vt 0.4044 0.2226 0.0000
vt 0.4013 0.2226 0.0000
vt 0.4024 0.2226 0.0000
vt 0.4618 0.5360 0.0000
vt 0.4618 0.4771 0.0000
vt 0.4454 0.6303 0.0000
vt 0.4454 0.6530 0.0000
vt 0.4454 0.6758 0.0000
vt 0.4454 0.6986 0.0000
vt 0.4454 0.7213 0.0000
vt 0.4454 0.7441 0.0000
vt 0.4454 0.7669 0.0000
vt 0.4645 0.4445 0.0000
vt 0.4057 0.4445 0.0000
vt 0.4044 0.4445 0.0000
vt 0.4024 0.4445 0.0000
vt 0.4013 0.4445 0.0000
vt 0.4454 0.7674 0.0000
vt 0.4454 0.7679 0.0000
vt 0.4454 0.8413 0.0000
vt 0.4454 0.9198 0.0000
vt 0.0008 0.9950 0.0000
vt 0.0008 0.9361 0.0000
vt 0.3672 0.6297 0.0000
vt 0.4454 0.6297 0.0000
vt 0.5404 0.5373 0.0000
vt 0.4618 0.5373 0.0000
vt 0.5404 0.5404 0.0000
vt 0.4618 0.5404 0.0000
vt 0.4618 0.5394 0.0000
vt 0.5404 0.5394 0.0000
vt 0.2936 0.6297 0.0000
vt 0.6148 0.5373 0.0000
vt 0.6143 0.5404 0.0000
vt 0.6147 0.5393 0.0000
vt 0.2936 0.5559 0.0000
vt 0.2936 0.4774 0.0000
vt 0.0753 0.9963 0.0000
vt 0.1538 0.9963 0.0000
vt 0.1538 0.9984 0.0000
vt 0.1538 0.9994 0.0000
vt 0.0753 0.9994 0.0000
vt 0.0753 0.9984 0.0000
vt 0.0008 0.9963 0.0000
vt 0.0012 0.9983 0.0000
vt 0.0013 0.9994 0.0000
vt 0.4011 0.0007 0.0000
vt 0.0010 0.0007 0.0000
vt 0.4969 0.4416 0.0000
vt 0.4969 0.0009 0.0000
vt 0.0016 0.6292 0.0000
vt 0.0016 0.5559 0.0000
vt 0.0798 0.5559 0.0000
vt 0.0798 0.6292 0.0000
vt 0.0016 0.4774 0.0000
vt 0.0798 0.4774 0.0000
vt 0.1529 0.6292 0.0000
vt 0.1529 0.5559 0.0000
vt 0.1529 0.4774 0.0000
vt 0.1993 0.4774 0.0000
vt 0.1993 0.5533 0.0000
vt 0.1766 0.4774 0.0000
vt 0.1766 0.5559 0.0000
vt 0.1539 0.5559 0.0000
vt 0.1539 0.4774 0.0000
vt 0.1699 0.9952 0.0000
vt 0.1699 0.9363 0.0000
vt 0.2485 0.9363 0.0000
vt 0.2485 0.9952 0.0000
vt 0.1539 0.7213 0.0000
vt 0.0798 0.7213 0.0000
vt 0.0798 0.6986 0.0000
vt 0.1539 0.6986 0.0000
vt 0.1539 0.7441 0.0000
vt 0.0798 0.7441 0.0000
vt 0.1539 0.7669 0.0000
vt 0.0798 0.7669 0.0000
vt 0.4057 0.0789 0.0000
vt 0.4645 0.0789 0.0000
vt 0.4645 0.1530 0.0000
vt 0.4057 0.1530 0.0000
vt 0.0798 0.6758 0.0000
vt 0.1539 0.6758 0.0000
vt 0.1539 0.6530 0.0000
vt 0.0798 0.6530 0.0000
vt 0.0798 0.6303 0.0000
vt 0.1539 0.6303 0.0000
vt 0.7548 0.4776 0.0000
vt 0.8292 0.4776 0.0000
vt 0.8292 0.5365 0.0000
vt 0.7548 0.5365 0.0000
vt 0.1766 0.6986 0.0000
vt 0.1766 0.7213 0.0000
vt 0.1766 0.7441 0.0000
vt 0.1766 0.7669 0.0000
vt 0.4645 0.1757 0.0000
vt 0.4057 0.1757 0.0000
vt 0.1766 0.6758 0.0000
vt 0.1766 0.6530 0.0000
vt 0.1766 0.6303 0.0000
vt 0.1993 0.7213 0.0000
vt 0.1993 0.6986 0.0000
vt 0.1993 0.7441 0.0000
vt 0.1993 0.7669 0.0000
vt 0.4645 0.1984 0.0000
vt 0.4057 0.1984 0.0000
vt 0.1993 0.6758 0.0000
vt 0.1993 0.6530 0.0000
vt 0.1993 0.6303 0.0000
vt 0.1993 0.8413 0.0000
vt 0.1993 0.7679 0.0000
vt 0.1993 0.9198 0.0000
vt 0.1766 0.8413 0.0000
vt 0.1766 0.7679 0.0000
vt 0.1766 0.9198 0.0000
vt 0.1539 0.7679 0.0000
vt 0.1539 0.8413 0.0000
vt 0.1539 0.9198 0.0000
vt 0.0798 0.7679 0.0000
vt 0.0798 0.8413 0.0000
vt 0.0798 0.9198 0.0000
vt 0.0798 0.7674 0.0000
vt 0.1539 0.7674 0.0000
vt 0.4044 0.0789 0.0000
vt 0.4044 0.1530 0.0000
vt 0.4013 0.1530 0.0000
vt 0.4013 0.0789 0.0000
vt 0.4024 0.0789 0.0000
vt 0.4024 0.1530 0.0000
vt 0.1766 0.7674 0.0000
vt 0.4044 0.1757 0.0000
vt 0.4013 0.1757 0.0000
vt 0.4024 0.1757 0.0000
vt 0.1993 0.7674 0.0000
vt 0.4044 0.1984 0.0000
vt 0.4013 0.1984 0.0000
vt 0.4024 0.1984 0.0000
vt 0.9077 0.5365 0.0000
vt 0.9077 0.4776 0.0000
vt 0.0016 0.6530 0.0000
vt 0.0016 0.6303 0.0000
vt 0.0016 0.6758 0.0000
vt 0.0016 0.6986 0.0000
vt 0.0016 0.7213 0.0000
vt 0.0016 0.7441 0.0000
vt 0.0016 0.7669 0.0000
vt 0.4057 0.0007 0.0000
vt 0.4645 0.0007 0.0000
vt 0.4044 0.0007 0.0000
vt 0.4024 0.0007 0.0000
vt 0.4013 0.0007 0.0000
vt 0.0016 0.7674 0.0000
vt 0.0016 0.7679 0.0000
vt 0.0016 0.8413 0.0000
vt 0.0016 0.9198 0.0000
vt 0.3229 0.9952 0.0000
vt 0.3229 0.9363 0.0000
vt 0.0798 0.6297 0.0000
vt 0.0016 0.6297 0.0000
vt 0.9077 0.5378 0.0000
vt 0.8292 0.5378 0.0000
vt 0.8292 0.5409 0.0000
vt 0.8292 0.5399 0.0000
vt 0.9077 0.5399 0.0000
vt 0.9077 0.5409 0.0000
vt 0.1534 0.6297 0.0000
vt 0.7548 0.5378 0.0000
vt 0.7552 0.5409 0.0000
vt 0.7549 0.5398 0.0000
vt 0.1534 0.4774 0.0000
vt 0.1534 0.5559 0.0000
vt 0.2485 0.9965 0.0000
vt 0.1699 0.9965 0.0000
vt 0.1699 0.9996 0.0000
vt 0.1699 0.9986 0.0000
vt 0.2485 0.9986 0.0000
vt 0.2485 0.9996 0.0000
vt 0.3229 0.9965 0.0000
vt 0.3225 0.9985 0.0000
vt 0.3224 0.9996 0.0000
# 290 texture coords

g corridor_T_intersection_polySurface12
usemtl dead_end_corridor_open_initialShadingGroup
s off
f 1/1/1 2/2/1 3/3/1 4/4/1 
f 1/5/2 4/6/2 5/7/2 6/8/2 
f 7/9/3 8/10/3 9/11/4 10/12/3 
f 11/13/3 8/10/3 7/9/3 12/14/3 
f 13/15/3 14/16/3 7/9/3 10/12/3 
f 12/14/3 7/9/3 14/16/3 15/17/3 
f 16/18/3 17/19/3 18/20/3 19/21/3 
f 20/22/3 19/21/3 18/20/3 21/23/3 
f 22/24/3 23/25/3 20/22/3 21/23/3 
f 24/26/5 25/27/5 23/28/5 22/29/5 
f 26/30/3 27/31/3 28/32/3 29/33/3 
f 30/34/3 26/30/3 29/33/3 31/35/3 
f 32/36/3 33/37/3 30/34/3 31/35/3 
f 32/38/1 34/39/1 35/40/1 33/41/1 
f 27/31/3 36/42/3 37/43/3 28/32/3 
f 36/42/3 38/44/3 39/45/3 37/43/3 
f 38/44/3 40/46/3 41/47/3 39/45/3 
f 41/48/6 40/49/6 42/50/6 43/51/6 
f 27/31/3 26/30/3 44/52/3 45/53/3 
f 46/54/3 44/52/3 26/30/3 30/34/3 
f 46/54/3 30/34/3 33/37/3 47/55/3 
f 35/40/1 48/56/1 47/57/1 33/41/1 
f 27/31/3 45/53/3 49/58/3 36/42/3 
f 38/44/3 36/42/3 49/58/3 50/59/3 
f 40/46/3 38/44/3 50/59/3 51/60/3 
f 52/61/3 53/62/3 45/53/3 44/52/3 
f 44/52/3 46/54/3 54/63/3 52/61/3 
f 47/55/3 55/64/3 54/63/3 46/54/3 
f 48/56/1 56/65/1 55/66/1 47/57/1 
f 53/62/3 57/67/3 49/58/3 45/53/3 
f 50/59/3 49/58/3 57/67/3 58/68/3 
f 59/69/3 51/60/3 50/59/3 58/68/3 
f 60/70/3 53/62/3 52/61/3 61/71/3 
f 54/63/3 62/72/3 61/71/3 52/61/3 
f 54/63/3 55/64/3 63/73/3 62/72/3 
f 64/74/1 63/75/1 55/66/1 56/65/1 
f 60/70/3 65/76/3 57/67/3 53/62/3 
f 65/76/3 66/77/3 58/68/3 57/67/3 
f 67/78/3 59/69/3 58/68/3 66/77/3 
f 68/79/3 69/80/3 70/81/3 71/82/3 
f 2/83/3 68/79/3 71/82/3 72/84/3 
f 73/85/3 74/86/3 71/82/3 70/81/3 
f 74/86/3 75/87/3 72/84/3 71/82/3 
f 74/86/3 73/85/3 76/88/3 77/89/3 
f 74/86/3 77/89/3 78/90/3 75/87/3 
f 79/91/3 80/92/3 77/89/3 76/88/3 
f 81/93/3 78/90/3 77/89/3 80/92/3 
f 76/88/7 82/94/7 83/95/7 79/91/7 
f 84/96/8 85/97/8 35/40/9 34/39/9 
f 82/98/10 86/99/11 87/100/11 83/101/10 
f 85/97/8 84/96/8 87/100/11 86/99/11 
f 88/102/7 82/94/7 76/88/7 73/85/7 
f 35/40/9 85/97/8 89/103/8 48/56/9 
f 90/104/11 86/99/11 82/98/10 88/105/10 
f 89/103/8 85/97/8 86/99/11 90/104/11 
f 70/81/7 91/106/7 88/102/7 73/85/7 
f 48/56/9 89/103/8 92/107/8 56/65/9 
f 91/108/10 93/109/11 90/104/11 88/105/10 
f 90/104/11 93/109/11 92/107/8 89/103/8 
f 69/80/7 94/110/7 91/106/7 70/81/7 
f 56/65/9 92/107/8 95/111/8 64/74/9 
f 94/112/10 96/113/11 93/109/11 91/108/10 
f 92/107/8 93/109/11 96/113/11 95/111/8 
f 97/114/6 98/115/6 41/48/6 43/51/6 
f 98/116/3 99/117/3 39/45/3 41/47/3 
f 39/45/3 99/117/3 100/118/3 37/43/3 
f 37/43/3 100/118/3 101/119/3 28/32/3 
f 102/120/3 29/33/3 28/32/3 101/119/3 
f 29/33/3 102/120/3 103/121/3 31/35/3 
f 103/121/3 104/122/3 32/36/3 31/35/3 
f 32/38/1 104/123/1 105/124/12 34/39/1 
f 106/125/8 84/96/8 34/39/9 105/124/12 
f 106/125/8 107/126/11 87/100/11 84/96/8 
f 108/127/13 83/101/10 87/100/11 107/126/11 
f 83/95/7 108/128/13 109/129/14 79/91/7 
f 110/130/3 80/92/3 79/91/3 109/129/14 
f 3/131/3 81/93/3 80/92/3 110/130/3 
f 23/28/5 25/27/5 42/132/5 40/133/5 
f 20/22/3 23/25/3 40/46/3 51/60/3 
f 51/60/3 59/69/3 19/21/3 20/22/3 
f 16/18/3 19/21/3 59/69/3 67/78/3 
f 111/134/15 10/12/15 9/11/4 112/135/16 
f 43/51/17 113/136/18 114/137/19 97/114/6 
f 111/138/20 112/139/16 115/140/21 116/141/22 
f 114/137/19 113/136/18 116/141/22 115/140/21 
f 117/142/15 13/15/15 10/12/15 111/134/15 
f 113/136/18 43/51/17 42/50/17 118/143/23 
f 117/144/24 111/138/20 116/141/22 119/145/25 
f 119/145/25 116/141/22 113/136/18 118/143/23 
f 14/16/26 120/146/26 121/147/27 15/17/28 
f 122/148/29 25/27/30 24/26/5 123/149/31 
f 124/150/32 121/151/27 120/152/33 125/153/34 
f 122/148/29 123/149/31 124/150/32 125/153/34 
f 120/146/26 14/16/26 13/15/35 117/142/35 
f 122/148/29 118/154/36 42/132/30 25/27/30 
f 119/155/37 125/153/34 120/152/33 117/156/38 
f 119/155/37 118/154/36 122/148/29 125/153/34 
f 126/157/1 2/2/1 1/1/1 127/158/1 
f 128/159/2 127/160/2 1/5/39 6/8/39 
f 129/161/4 130/162/3 131/163/3 132/164/3 
f 131/163/3 130/162/3 133/165/3 134/166/3 
f 135/167/3 132/164/3 131/163/3 136/168/3 
f 137/169/3 136/168/3 131/163/3 134/166/3 
f 138/170/3 17/19/3 16/18/3 139/171/3 
f 140/172/3 138/170/3 139/171/3 141/173/3 
f 141/173/3 142/174/3 143/175/3 140/172/3 
f 144/176/40 143/177/40 142/178/41 145/179/41 
f 146/180/3 147/181/3 148/182/3 149/183/3 
f 150/184/3 151/185/3 147/181/3 146/180/3 
f 152/186/3 153/187/3 151/185/3 150/184/3 
f 154/188/1 153/189/1 152/190/1 155/191/1 
f 156/192/3 157/193/3 149/183/3 148/182/3 
f 158/194/3 157/193/3 156/192/3 159/195/3 
f 160/196/3 161/197/3 158/194/3 159/195/3 
f 161/198/6 160/199/6 162/200/6 163/201/6 
f 146/180/3 149/183/3 164/202/3 165/203/3 
f 166/204/3 150/184/3 146/180/3 165/203/3 
f 166/204/3 167/205/3 152/186/3 150/184/3 
f 152/190/1 167/206/1 168/207/1 155/191/1 
f 149/183/3 157/193/3 169/208/3 164/202/3 
f 158/194/3 170/209/3 169/208/3 157/193/3 
f 161/197/3 171/210/3 170/209/3 158/194/3 
f 172/211/3 165/203/3 164/202/3 173/212/3 
f 172/211/3 174/213/3 166/204/3 165/203/3 
f 174/213/3 175/214/3 167/205/3 166/204/3 
f 168/207/1 167/206/1 175/215/1 176/216/1 
f 169/208/3 177/217/3 173/212/3 164/202/3 
f 178/218/3 177/217/3 169/208/3 170/209/3 
f 179/219/3 178/218/3 170/209/3 171/210/3 
f 173/212/3 60/70/3 61/71/3 172/211/3 
f 172/211/3 61/71/3 62/72/3 174/213/3 
f 62/72/3 63/73/3 175/214/3 174/213/3 
f 64/74/1 176/216/1 175/215/1 63/75/1 
f 177/217/3 65/76/3 60/70/3 173/212/3 
f 178/218/3 66/77/3 65/76/3 177/217/3 
f 66/77/3 178/218/3 179/219/3 67/78/3 
f 69/80/3 68/79/3 180/220/3 181/221/3 
f 2/83/3 182/222/3 180/220/3 68/79/3 
f 180/220/3 183/223/3 184/224/3 181/221/3 
f 183/223/3 180/220/3 182/222/3 185/225/3 
f 186/226/3 184/224/3 183/223/3 187/227/3 
f 185/225/3 188/228/3 187/227/3 183/223/3 
f 189/229/3 186/226/3 187/227/3 190/230/3 
f 188/228/3 191/231/3 190/230/3 187/227/3 
f 186/226/7 189/229/7 192/232/7 193/233/7 
f 194/234/8 154/188/9 155/191/9 195/235/8 
f 193/236/10 192/237/10 196/238/11 197/239/11 
f 196/238/11 194/234/8 195/235/8 197/239/11 
f 184/224/7 186/226/7 193/233/7 198/240/7 
f 155/191/9 168/207/9 199/241/8 195/235/8 
f 198/242/10 193/236/10 197/239/11 200/243/11 
f 200/243/11 197/239/11 195/235/8 199/241/8 
f 181/221/7 184/224/7 198/240/7 201/244/7 
f 199/241/8 168/207/9 176/216/9 202/245/8 
f 201/246/10 198/242/10 200/243/11 203/247/11 
f 199/241/8 202/245/8 203/247/11 200/243/11 
f 201/244/7 94/110/7 69/80/7 181/221/7 
f 176/216/9 64/74/9 95/111/8 202/245/8 
f 96/113/11 94/112/10 201/246/10 203/247/11 
f 95/111/8 96/113/11 203/247/11 202/245/8 
f 204/248/6 162/200/6 160/199/6 205/249/6 
f 159/195/3 206/250/3 205/251/3 160/196/3 
f 159/195/3 156/192/3 207/252/3 206/250/3 
f 207/252/3 156/192/3 148/182/3 208/253/3 
f 147/181/3 209/254/3 208/253/3 148/182/3 
f 210/255/3 209/254/3 147/181/3 151/185/3 
f 210/255/3 151/185/3 153/187/3 211/256/3 
f 154/188/1 212/257/12 211/258/1 153/189/1 
f 212/257/12 154/188/9 194/234/8 213/259/8 
f 194/234/8 196/238/11 214/260/11 213/259/8 
f 214/260/11 196/238/11 192/237/10 215/261/13 
f 215/262/13 192/232/7 189/229/7 216/263/14 
f 217/264/3 216/263/14 189/229/3 190/230/3 
f 217/264/3 190/230/3 191/231/3 126/265/3 
f 163/266/40 145/179/41 142/178/41 161/267/40 
f 142/174/3 141/173/3 171/210/3 161/197/3 
f 139/171/3 179/219/3 171/210/3 141/173/3 
f 179/219/3 139/171/3 16/18/3 67/78/3 
f 132/164/15 218/268/15 219/269/16 129/161/4 
f 162/200/17 204/248/6 220/270/19 221/271/42 
f 218/272/43 222/273/44 223/274/21 219/275/16 
f 223/274/21 222/273/44 221/271/42 220/270/19 
f 132/164/15 135/167/15 224/276/15 218/268/15 
f 225/277/45 163/201/17 162/200/17 221/271/42 
f 224/278/46 226/279/47 222/273/44 218/272/43 
f 222/273/44 226/279/47 225/277/45 221/271/42 
f 136/168/48 137/169/49 227/280/50 228/281/48 
f 229/282/51 230/283/52 144/176/40 145/179/53 
f 227/284/50 231/285/54 232/286/55 228/287/56 
f 229/282/51 232/286/55 231/285/54 230/283/52 
f 135/167/57 136/168/48 228/281/48 224/276/57 
f 229/282/51 145/179/53 163/266/53 225/288/58 
f 226/289/59 224/290/60 228/287/56 232/286/55 
f 229/282/51 225/288/58 226/289/59 232/286/55 
# 194 polygons

